<svg width="60" height="30" viewBox="0 0 60 30" fill="none" xmlns="http://www.w3.org/2000/svg">
  <!-- S shape -->
  <path d="M10 5C13 5 15 7 15 10C15 13 13 15 10 15C7 15 5 17 5 20C5 23 7 25 10 25C13 25 15 23 15 20" stroke="#0095FF" stroke-width="3" fill="none"/>
  
  <!-- C shape -->
  <path d="M25 5C22 5 20 7 20 10V20C20 23 22 25 25 25C28 25 30 23 30 20" stroke="#0095FF" stroke-width="3" fill="none"/>
  
  <!-- Dot -->
  <circle cx="35" cy="15" r="4" fill="#1A1A50"/>
  
  <!-- Dot -->
  <circle cx="45" cy="15" r="4" fill="#1A1A50"/>
</svg> 